<?xml version="1.0" encoding="UTF-8" ?>
<svg version="1.1" width="57" height="9" xmlns="http://www.w3.org/2000/svg" shape-rendering="crispEdges">
<rect x="0" y="0" width="1" height="1" fill="#020202" />
<rect x="1" y="0" width="1" height="1" fill="#020202" />
<rect x="12" y="0" width="1" height="1" fill="#020202" />
<rect x="29" y="0" width="1" height="1" fill="#020202" />
<rect x="30" y="0" width="1" height="1" fill="#020202" />
<rect x="31" y="0" width="1" height="1" fill="#020202" />
<rect x="0" y="1" width="1" height="1" fill="#020202" />
<rect x="1" y="1" width="1" height="1" fill="#020202" />
<rect x="12" y="1" width="1" height="1" fill="#020202" />
<rect x="31" y="1" width="1" height="1" fill="#020202" />
<rect x="2" y="2" width="1" height="1" fill="#020202" />
<rect x="3" y="2" width="1" height="1" fill="#020202" />
<rect x="10" y="2" width="1" height="1" fill="#020202" />
<rect x="11" y="2" width="1" height="1" fill="#020202" />
<rect x="12" y="2" width="1" height="1" fill="#020202" />
<rect x="14" y="2" width="1" height="1" fill="#020202" />
<rect x="15" y="2" width="1" height="1" fill="#020202" />
<rect x="16" y="2" width="1" height="1" fill="#020202" />
<rect x="17" y="2" width="1" height="1" fill="#020202" />
<rect x="19" y="2" width="1" height="1" fill="#020202" />
<rect x="20" y="2" width="1" height="1" fill="#020202" />
<rect x="21" y="2" width="1" height="1" fill="#020202" />
<rect x="22" y="2" width="1" height="1" fill="#020202" />
<rect x="24" y="2" width="1" height="1" fill="#020202" />
<rect x="25" y="2" width="1" height="1" fill="#020202" />
<rect x="26" y="2" width="1" height="1" fill="#020202" />
<rect x="27" y="2" width="1" height="1" fill="#020202" />
<rect x="31" y="2" width="1" height="1" fill="#020202" />
<rect x="35" y="2" width="1" height="1" fill="#020202" />
<rect x="36" y="2" width="1" height="1" fill="#020202" />
<rect x="40" y="2" width="1" height="1" fill="#020202" />
<rect x="41" y="2" width="1" height="1" fill="#020202" />
<rect x="42" y="2" width="1" height="1" fill="#020202" />
<rect x="43" y="2" width="1" height="1" fill="#020202" />
<rect x="44" y="2" width="1" height="1" fill="#020202" />
<rect x="46" y="2" width="1" height="1" fill="#020202" />
<rect x="47" y="2" width="1" height="1" fill="#020202" />
<rect x="50" y="2" width="1" height="1" fill="#020202" />
<rect x="51" y="2" width="1" height="1" fill="#020202" />
<rect x="52" y="2" width="1" height="1" fill="#020202" />
<rect x="53" y="2" width="1" height="1" fill="#020202" />
<rect x="2" y="3" width="1" height="1" fill="#020202" />
<rect x="3" y="3" width="1" height="1" fill="#020202" />
<rect x="9" y="3" width="1" height="1" fill="#020202" />
<rect x="12" y="3" width="1" height="1" fill="#020202" />
<rect x="17" y="3" width="1" height="1" fill="#020202" />
<rect x="21" y="3" width="1" height="1" fill="#020202" />
<rect x="26" y="3" width="1" height="1" fill="#020202" />
<rect x="31" y="3" width="1" height="1" fill="#020202" />
<rect x="34" y="3" width="1" height="1" fill="#020202" />
<rect x="37" y="3" width="1" height="1" fill="#020202" />
<rect x="39" y="3" width="1" height="1" fill="#020202" />
<rect x="43" y="3" width="1" height="1" fill="#020202" />
<rect x="45" y="3" width="1" height="1" fill="#020202" />
<rect x="48" y="3" width="1" height="1" fill="#020202" />
<rect x="50" y="3" width="1" height="1" fill="#020202" />
<rect x="53" y="3" width="1" height="1" fill="#020202" />
<rect x="2" y="4" width="1" height="1" fill="#020202" />
<rect x="3" y="4" width="1" height="1" fill="#020202" />
<rect x="4" y="4" width="1" height="1" fill="#020202" />
<rect x="5" y="4" width="1" height="1" fill="#020202" />
<rect x="9" y="4" width="1" height="1" fill="#020202" />
<rect x="12" y="4" width="1" height="1" fill="#020202" />
<rect x="14" y="4" width="1" height="1" fill="#020202" />
<rect x="15" y="4" width="1" height="1" fill="#020202" />
<rect x="16" y="4" width="1" height="1" fill="#020202" />
<rect x="17" y="4" width="1" height="1" fill="#020202" />
<rect x="21" y="4" width="1" height="1" fill="#020202" />
<rect x="26" y="4" width="1" height="1" fill="#020202" />
<rect x="31" y="4" width="1" height="1" fill="#020202" />
<rect x="34" y="4" width="1" height="1" fill="#020202" />
<rect x="35" y="4" width="1" height="1" fill="#020202" />
<rect x="36" y="4" width="1" height="1" fill="#020202" />
<rect x="37" y="4" width="1" height="1" fill="#020202" />
<rect x="39" y="4" width="1" height="1" fill="#020202" />
<rect x="40" y="4" width="1" height="1" fill="#020202" />
<rect x="41" y="4" width="1" height="1" fill="#020202" />
<rect x="42" y="4" width="1" height="1" fill="#020202" />
<rect x="45" y="4" width="1" height="1" fill="#020202" />
<rect x="46" y="4" width="1" height="1" fill="#020202" />
<rect x="47" y="4" width="1" height="1" fill="#020202" />
<rect x="48" y="4" width="1" height="1" fill="#020202" />
<rect x="50" y="4" width="1" height="1" fill="#020202" />
<rect x="53" y="4" width="1" height="1" fill="#020202" />
<rect x="2" y="5" width="1" height="1" fill="#020202" />
<rect x="3" y="5" width="1" height="1" fill="#020202" />
<rect x="4" y="5" width="1" height="1" fill="#020202" />
<rect x="5" y="5" width="1" height="1" fill="#020202" />
<rect x="9" y="5" width="1" height="1" fill="#020202" />
<rect x="12" y="5" width="1" height="1" fill="#020202" />
<rect x="14" y="5" width="1" height="1" fill="#020202" />
<rect x="17" y="5" width="1" height="1" fill="#020202" />
<rect x="20" y="5" width="1" height="1" fill="#020202" />
<rect x="25" y="5" width="1" height="1" fill="#020202" />
<rect x="31" y="5" width="1" height="1" fill="#020202" />
<rect x="34" y="5" width="1" height="1" fill="#020202" />
<rect x="39" y="5" width="1" height="1" fill="#020202" />
<rect x="45" y="5" width="1" height="1" fill="#020202" />
<rect x="50" y="5" width="1" height="1" fill="#020202" />
<rect x="53" y="5" width="1" height="1" fill="#020202" />
<rect x="0" y="6" width="1" height="1" fill="#020202" />
<rect x="1" y="6" width="1" height="1" fill="#020202" />
<rect x="4" y="6" width="1" height="1" fill="#020202" />
<rect x="5" y="6" width="1" height="1" fill="#020202" />
<rect x="10" y="6" width="1" height="1" fill="#020202" />
<rect x="11" y="6" width="1" height="1" fill="#020202" />
<rect x="12" y="6" width="1" height="1" fill="#020202" />
<rect x="14" y="6" width="1" height="1" fill="#020202" />
<rect x="15" y="6" width="1" height="1" fill="#020202" />
<rect x="16" y="6" width="1" height="1" fill="#020202" />
<rect x="17" y="6" width="1" height="1" fill="#020202" />
<rect x="19" y="6" width="1" height="1" fill="#020202" />
<rect x="20" y="6" width="1" height="1" fill="#020202" />
<rect x="21" y="6" width="1" height="1" fill="#020202" />
<rect x="22" y="6" width="1" height="1" fill="#020202" />
<rect x="24" y="6" width="1" height="1" fill="#020202" />
<rect x="25" y="6" width="1" height="1" fill="#020202" />
<rect x="26" y="6" width="1" height="1" fill="#020202" />
<rect x="27" y="6" width="1" height="1" fill="#020202" />
<rect x="29" y="6" width="1" height="1" fill="#020202" />
<rect x="30" y="6" width="1" height="1" fill="#020202" />
<rect x="31" y="6" width="1" height="1" fill="#020202" />
<rect x="32" y="6" width="1" height="1" fill="#020202" />
<rect x="35" y="6" width="1" height="1" fill="#020202" />
<rect x="36" y="6" width="1" height="1" fill="#020202" />
<rect x="37" y="6" width="1" height="1" fill="#020202" />
<rect x="39" y="6" width="1" height="1" fill="#020202" />
<rect x="40" y="6" width="1" height="1" fill="#020202" />
<rect x="41" y="6" width="1" height="1" fill="#020202" />
<rect x="42" y="6" width="1" height="1" fill="#020202" />
<rect x="43" y="6" width="1" height="1" fill="#020202" />
<rect x="46" y="6" width="1" height="1" fill="#020202" />
<rect x="47" y="6" width="1" height="1" fill="#020202" />
<rect x="48" y="6" width="1" height="1" fill="#020202" />
<rect x="50" y="6" width="1" height="1" fill="#020202" />
<rect x="53" y="6" width="1" height="1" fill="#020202" />
<rect x="39" y="7" width="1" height="1" fill="#020202" />
<rect x="43" y="7" width="1" height="1" fill="#020202" />
<rect x="39" y="8" width="1" height="1" fill="#020202" />
<rect x="40" y="8" width="1" height="1" fill="#020202" />
<rect x="41" y="8" width="1" height="1" fill="#020202" />
<rect x="42" y="8" width="1" height="1" fill="#020202" />
</svg>