<?xml version="1.0" encoding="UTF-8" ?>
<svg version="1.1" width="114" height="18" xmlns="http://www.w3.org/2000/svg" shape-rendering="crispEdges">
<rect x="0" y="0" width="1" height="1" fill="#020202" />
<rect x="1" y="0" width="1" height="1" fill="#020202" />
<rect x="2" y="0" width="1" height="1" fill="#020202" />
<rect x="3" y="0" width="1" height="1" fill="#020202" />
<rect x="24" y="0" width="1" height="1" fill="#020202" />
<rect x="25" y="0" width="1" height="1" fill="#020202" />
<rect x="62" y="0" width="1" height="1" fill="#020202" />
<rect x="63" y="0" width="1" height="1" fill="#020202" />
<rect x="64" y="0" width="1" height="1" fill="#020202" />
<rect x="65" y="0" width="1" height="1" fill="#020202" />
<rect x="66" y="0" width="1" height="1" fill="#020202" />
<rect x="67" y="0" width="1" height="1" fill="#020202" />
<rect x="0" y="1" width="1" height="1" fill="#020202" />
<rect x="1" y="1" width="1" height="1" fill="#020202" />
<rect x="2" y="1" width="1" height="1" fill="#020202" />
<rect x="3" y="1" width="1" height="1" fill="#020202" />
<rect x="24" y="1" width="1" height="1" fill="#020202" />
<rect x="25" y="1" width="1" height="1" fill="#020202" />
<rect x="62" y="1" width="1" height="1" fill="#020202" />
<rect x="63" y="1" width="1" height="1" fill="#020202" />
<rect x="64" y="1" width="1" height="1" fill="#020202" />
<rect x="65" y="1" width="1" height="1" fill="#020202" />
<rect x="66" y="1" width="1" height="1" fill="#020202" />
<rect x="67" y="1" width="1" height="1" fill="#020202" />
<rect x="0" y="2" width="1" height="1" fill="#020202" />
<rect x="1" y="2" width="1" height="1" fill="#020202" />
<rect x="2" y="2" width="1" height="1" fill="#020202" />
<rect x="3" y="2" width="1" height="1" fill="#020202" />
<rect x="24" y="2" width="1" height="1" fill="#020202" />
<rect x="25" y="2" width="1" height="1" fill="#020202" />
<rect x="66" y="2" width="1" height="1" fill="#020202" />
<rect x="67" y="2" width="1" height="1" fill="#020202" />
<rect x="0" y="3" width="1" height="1" fill="#020202" />
<rect x="1" y="3" width="1" height="1" fill="#020202" />
<rect x="2" y="3" width="1" height="1" fill="#020202" />
<rect x="3" y="3" width="1" height="1" fill="#020202" />
<rect x="24" y="3" width="1" height="1" fill="#020202" />
<rect x="25" y="3" width="1" height="1" fill="#020202" />
<rect x="66" y="3" width="1" height="1" fill="#020202" />
<rect x="67" y="3" width="1" height="1" fill="#020202" />
<rect x="4" y="4" width="1" height="1" fill="#020202" />
<rect x="5" y="4" width="1" height="1" fill="#020202" />
<rect x="6" y="4" width="1" height="1" fill="#020202" />
<rect x="7" y="4" width="1" height="1" fill="#020202" />
<rect x="20" y="4" width="1" height="1" fill="#020202" />
<rect x="21" y="4" width="1" height="1" fill="#020202" />
<rect x="22" y="4" width="1" height="1" fill="#020202" />
<rect x="23" y="4" width="1" height="1" fill="#020202" />
<rect x="24" y="4" width="1" height="1" fill="#020202" />
<rect x="25" y="4" width="1" height="1" fill="#020202" />
<rect x="28" y="4" width="1" height="1" fill="#020202" />
<rect x="29" y="4" width="1" height="1" fill="#020202" />
<rect x="30" y="4" width="1" height="1" fill="#020202" />
<rect x="31" y="4" width="1" height="1" fill="#020202" />
<rect x="32" y="4" width="1" height="1" fill="#020202" />
<rect x="33" y="4" width="1" height="1" fill="#020202" />
<rect x="34" y="4" width="1" height="1" fill="#020202" />
<rect x="35" y="4" width="1" height="1" fill="#020202" />
<rect x="40" y="4" width="1" height="1" fill="#020202" />
<rect x="41" y="4" width="1" height="1" fill="#020202" />
<rect x="42" y="4" width="1" height="1" fill="#020202" />
<rect x="43" y="4" width="1" height="1" fill="#020202" />
<rect x="44" y="4" width="1" height="1" fill="#020202" />
<rect x="45" y="4" width="1" height="1" fill="#020202" />
<rect x="46" y="4" width="1" height="1" fill="#020202" />
<rect x="47" y="4" width="1" height="1" fill="#020202" />
<rect x="50" y="4" width="1" height="1" fill="#020202" />
<rect x="51" y="4" width="1" height="1" fill="#020202" />
<rect x="52" y="4" width="1" height="1" fill="#020202" />
<rect x="53" y="4" width="1" height="1" fill="#020202" />
<rect x="54" y="4" width="1" height="1" fill="#020202" />
<rect x="55" y="4" width="1" height="1" fill="#020202" />
<rect x="56" y="4" width="1" height="1" fill="#020202" />
<rect x="57" y="4" width="1" height="1" fill="#020202" />
<rect x="66" y="4" width="1" height="1" fill="#020202" />
<rect x="67" y="4" width="1" height="1" fill="#020202" />
<rect x="74" y="4" width="1" height="1" fill="#020202" />
<rect x="75" y="4" width="1" height="1" fill="#020202" />
<rect x="76" y="4" width="1" height="1" fill="#020202" />
<rect x="77" y="4" width="1" height="1" fill="#020202" />
<rect x="84" y="4" width="1" height="1" fill="#020202" />
<rect x="85" y="4" width="1" height="1" fill="#020202" />
<rect x="86" y="4" width="1" height="1" fill="#020202" />
<rect x="87" y="4" width="1" height="1" fill="#020202" />
<rect x="88" y="4" width="1" height="1" fill="#020202" />
<rect x="89" y="4" width="1" height="1" fill="#020202" />
<rect x="90" y="4" width="1" height="1" fill="#020202" />
<rect x="91" y="4" width="1" height="1" fill="#020202" />
<rect x="92" y="4" width="1" height="1" fill="#020202" />
<rect x="93" y="4" width="1" height="1" fill="#020202" />
<rect x="96" y="4" width="1" height="1" fill="#020202" />
<rect x="97" y="4" width="1" height="1" fill="#020202" />
<rect x="98" y="4" width="1" height="1" fill="#020202" />
<rect x="99" y="4" width="1" height="1" fill="#020202" />
<rect x="106" y="4" width="1" height="1" fill="#020202" />
<rect x="107" y="4" width="1" height="1" fill="#020202" />
<rect x="108" y="4" width="1" height="1" fill="#020202" />
<rect x="109" y="4" width="1" height="1" fill="#020202" />
<rect x="110" y="4" width="1" height="1" fill="#020202" />
<rect x="111" y="4" width="1" height="1" fill="#020202" />
<rect x="112" y="4" width="1" height="1" fill="#020202" />
<rect x="113" y="4" width="1" height="1" fill="#020202" />
<rect x="4" y="5" width="1" height="1" fill="#020202" />
<rect x="5" y="5" width="1" height="1" fill="#020202" />
<rect x="6" y="5" width="1" height="1" fill="#020202" />
<rect x="7" y="5" width="1" height="1" fill="#020202" />
<rect x="20" y="5" width="1" height="1" fill="#020202" />
<rect x="21" y="5" width="1" height="1" fill="#020202" />
<rect x="22" y="5" width="1" height="1" fill="#020202" />
<rect x="23" y="5" width="1" height="1" fill="#020202" />
<rect x="24" y="5" width="1" height="1" fill="#020202" />
<rect x="25" y="5" width="1" height="1" fill="#020202" />
<rect x="28" y="5" width="1" height="1" fill="#020202" />
<rect x="29" y="5" width="1" height="1" fill="#020202" />
<rect x="30" y="5" width="1" height="1" fill="#020202" />
<rect x="31" y="5" width="1" height="1" fill="#020202" />
<rect x="32" y="5" width="1" height="1" fill="#020202" />
<rect x="33" y="5" width="1" height="1" fill="#020202" />
<rect x="34" y="5" width="1" height="1" fill="#020202" />
<rect x="35" y="5" width="1" height="1" fill="#020202" />
<rect x="40" y="5" width="1" height="1" fill="#020202" />
<rect x="41" y="5" width="1" height="1" fill="#020202" />
<rect x="42" y="5" width="1" height="1" fill="#020202" />
<rect x="43" y="5" width="1" height="1" fill="#020202" />
<rect x="44" y="5" width="1" height="1" fill="#020202" />
<rect x="45" y="5" width="1" height="1" fill="#020202" />
<rect x="46" y="5" width="1" height="1" fill="#020202" />
<rect x="47" y="5" width="1" height="1" fill="#020202" />
<rect x="50" y="5" width="1" height="1" fill="#020202" />
<rect x="51" y="5" width="1" height="1" fill="#020202" />
<rect x="52" y="5" width="1" height="1" fill="#020202" />
<rect x="53" y="5" width="1" height="1" fill="#020202" />
<rect x="54" y="5" width="1" height="1" fill="#020202" />
<rect x="55" y="5" width="1" height="1" fill="#020202" />
<rect x="56" y="5" width="1" height="1" fill="#020202" />
<rect x="57" y="5" width="1" height="1" fill="#020202" />
<rect x="66" y="5" width="1" height="1" fill="#020202" />
<rect x="67" y="5" width="1" height="1" fill="#020202" />
<rect x="74" y="5" width="1" height="1" fill="#020202" />
<rect x="75" y="5" width="1" height="1" fill="#020202" />
<rect x="76" y="5" width="1" height="1" fill="#020202" />
<rect x="77" y="5" width="1" height="1" fill="#020202" />
<rect x="84" y="5" width="1" height="1" fill="#020202" />
<rect x="85" y="5" width="1" height="1" fill="#020202" />
<rect x="86" y="5" width="1" height="1" fill="#020202" />
<rect x="87" y="5" width="1" height="1" fill="#020202" />
<rect x="88" y="5" width="1" height="1" fill="#020202" />
<rect x="89" y="5" width="1" height="1" fill="#020202" />
<rect x="90" y="5" width="1" height="1" fill="#020202" />
<rect x="91" y="5" width="1" height="1" fill="#020202" />
<rect x="92" y="5" width="1" height="1" fill="#020202" />
<rect x="93" y="5" width="1" height="1" fill="#020202" />
<rect x="96" y="5" width="1" height="1" fill="#020202" />
<rect x="97" y="5" width="1" height="1" fill="#020202" />
<rect x="98" y="5" width="1" height="1" fill="#020202" />
<rect x="99" y="5" width="1" height="1" fill="#020202" />
<rect x="106" y="5" width="1" height="1" fill="#020202" />
<rect x="107" y="5" width="1" height="1" fill="#020202" />
<rect x="108" y="5" width="1" height="1" fill="#020202" />
<rect x="109" y="5" width="1" height="1" fill="#020202" />
<rect x="110" y="5" width="1" height="1" fill="#020202" />
<rect x="111" y="5" width="1" height="1" fill="#020202" />
<rect x="112" y="5" width="1" height="1" fill="#020202" />
<rect x="113" y="5" width="1" height="1" fill="#020202" />
<rect x="4" y="6" width="1" height="1" fill="#020202" />
<rect x="5" y="6" width="1" height="1" fill="#020202" />
<rect x="6" y="6" width="1" height="1" fill="#020202" />
<rect x="7" y="6" width="1" height="1" fill="#020202" />
<rect x="18" y="6" width="1" height="1" fill="#020202" />
<rect x="19" y="6" width="1" height="1" fill="#020202" />
<rect x="24" y="6" width="1" height="1" fill="#020202" />
<rect x="25" y="6" width="1" height="1" fill="#020202" />
<rect x="34" y="6" width="1" height="1" fill="#020202" />
<rect x="35" y="6" width="1" height="1" fill="#020202" />
<rect x="44" y="6" width="1" height="1" fill="#020202" />
<rect x="45" y="6" width="1" height="1" fill="#020202" />
<rect x="54" y="6" width="1" height="1" fill="#020202" />
<rect x="55" y="6" width="1" height="1" fill="#020202" />
<rect x="66" y="6" width="1" height="1" fill="#020202" />
<rect x="67" y="6" width="1" height="1" fill="#020202" />
<rect x="72" y="6" width="1" height="1" fill="#020202" />
<rect x="73" y="6" width="1" height="1" fill="#020202" />
<rect x="78" y="6" width="1" height="1" fill="#020202" />
<rect x="79" y="6" width="1" height="1" fill="#020202" />
<rect x="82" y="6" width="1" height="1" fill="#020202" />
<rect x="83" y="6" width="1" height="1" fill="#020202" />
<rect x="90" y="6" width="1" height="1" fill="#020202" />
<rect x="91" y="6" width="1" height="1" fill="#020202" />
<rect x="94" y="6" width="1" height="1" fill="#020202" />
<rect x="95" y="6" width="1" height="1" fill="#020202" />
<rect x="100" y="6" width="1" height="1" fill="#020202" />
<rect x="101" y="6" width="1" height="1" fill="#020202" />
<rect x="106" y="6" width="1" height="1" fill="#020202" />
<rect x="107" y="6" width="1" height="1" fill="#020202" />
<rect x="112" y="6" width="1" height="1" fill="#020202" />
<rect x="113" y="6" width="1" height="1" fill="#020202" />
<rect x="4" y="7" width="1" height="1" fill="#020202" />
<rect x="5" y="7" width="1" height="1" fill="#020202" />
<rect x="6" y="7" width="1" height="1" fill="#020202" />
<rect x="7" y="7" width="1" height="1" fill="#020202" />
<rect x="18" y="7" width="1" height="1" fill="#020202" />
<rect x="19" y="7" width="1" height="1" fill="#020202" />
<rect x="24" y="7" width="1" height="1" fill="#020202" />
<rect x="25" y="7" width="1" height="1" fill="#020202" />
<rect x="34" y="7" width="1" height="1" fill="#020202" />
<rect x="35" y="7" width="1" height="1" fill="#020202" />
<rect x="44" y="7" width="1" height="1" fill="#020202" />
<rect x="45" y="7" width="1" height="1" fill="#020202" />
<rect x="54" y="7" width="1" height="1" fill="#020202" />
<rect x="55" y="7" width="1" height="1" fill="#020202" />
<rect x="66" y="7" width="1" height="1" fill="#020202" />
<rect x="67" y="7" width="1" height="1" fill="#020202" />
<rect x="72" y="7" width="1" height="1" fill="#020202" />
<rect x="73" y="7" width="1" height="1" fill="#020202" />
<rect x="78" y="7" width="1" height="1" fill="#020202" />
<rect x="79" y="7" width="1" height="1" fill="#020202" />
<rect x="82" y="7" width="1" height="1" fill="#020202" />
<rect x="83" y="7" width="1" height="1" fill="#020202" />
<rect x="90" y="7" width="1" height="1" fill="#020202" />
<rect x="91" y="7" width="1" height="1" fill="#020202" />
<rect x="94" y="7" width="1" height="1" fill="#020202" />
<rect x="95" y="7" width="1" height="1" fill="#020202" />
<rect x="100" y="7" width="1" height="1" fill="#020202" />
<rect x="101" y="7" width="1" height="1" fill="#020202" />
<rect x="106" y="7" width="1" height="1" fill="#020202" />
<rect x="107" y="7" width="1" height="1" fill="#020202" />
<rect x="112" y="7" width="1" height="1" fill="#020202" />
<rect x="113" y="7" width="1" height="1" fill="#020202" />
<rect x="4" y="8" width="1" height="1" fill="#020202" />
<rect x="5" y="8" width="1" height="1" fill="#020202" />
<rect x="6" y="8" width="1" height="1" fill="#020202" />
<rect x="7" y="8" width="1" height="1" fill="#020202" />
<rect x="8" y="8" width="1" height="1" fill="#020202" />
<rect x="9" y="8" width="1" height="1" fill="#020202" />
<rect x="10" y="8" width="1" height="1" fill="#020202" />
<rect x="11" y="8" width="1" height="1" fill="#020202" />
<rect x="18" y="8" width="1" height="1" fill="#020202" />
<rect x="19" y="8" width="1" height="1" fill="#020202" />
<rect x="24" y="8" width="1" height="1" fill="#020202" />
<rect x="25" y="8" width="1" height="1" fill="#020202" />
<rect x="28" y="8" width="1" height="1" fill="#020202" />
<rect x="29" y="8" width="1" height="1" fill="#020202" />
<rect x="30" y="8" width="1" height="1" fill="#020202" />
<rect x="31" y="8" width="1" height="1" fill="#020202" />
<rect x="32" y="8" width="1" height="1" fill="#020202" />
<rect x="33" y="8" width="1" height="1" fill="#020202" />
<rect x="34" y="8" width="1" height="1" fill="#020202" />
<rect x="35" y="8" width="1" height="1" fill="#020202" />
<rect x="44" y="8" width="1" height="1" fill="#020202" />
<rect x="45" y="8" width="1" height="1" fill="#020202" />
<rect x="54" y="8" width="1" height="1" fill="#020202" />
<rect x="55" y="8" width="1" height="1" fill="#020202" />
<rect x="66" y="8" width="1" height="1" fill="#020202" />
<rect x="67" y="8" width="1" height="1" fill="#020202" />
<rect x="72" y="8" width="1" height="1" fill="#020202" />
<rect x="73" y="8" width="1" height="1" fill="#020202" />
<rect x="74" y="8" width="1" height="1" fill="#020202" />
<rect x="75" y="8" width="1" height="1" fill="#020202" />
<rect x="76" y="8" width="1" height="1" fill="#020202" />
<rect x="77" y="8" width="1" height="1" fill="#020202" />
<rect x="78" y="8" width="1" height="1" fill="#020202" />
<rect x="79" y="8" width="1" height="1" fill="#020202" />
<rect x="82" y="8" width="1" height="1" fill="#020202" />
<rect x="83" y="8" width="1" height="1" fill="#020202" />
<rect x="84" y="8" width="1" height="1" fill="#020202" />
<rect x="85" y="8" width="1" height="1" fill="#020202" />
<rect x="86" y="8" width="1" height="1" fill="#020202" />
<rect x="87" y="8" width="1" height="1" fill="#020202" />
<rect x="88" y="8" width="1" height="1" fill="#020202" />
<rect x="89" y="8" width="1" height="1" fill="#020202" />
<rect x="94" y="8" width="1" height="1" fill="#020202" />
<rect x="95" y="8" width="1" height="1" fill="#020202" />
<rect x="96" y="8" width="1" height="1" fill="#020202" />
<rect x="97" y="8" width="1" height="1" fill="#020202" />
<rect x="98" y="8" width="1" height="1" fill="#020202" />
<rect x="99" y="8" width="1" height="1" fill="#020202" />
<rect x="100" y="8" width="1" height="1" fill="#020202" />
<rect x="101" y="8" width="1" height="1" fill="#020202" />
<rect x="106" y="8" width="1" height="1" fill="#020202" />
<rect x="107" y="8" width="1" height="1" fill="#020202" />
<rect x="112" y="8" width="1" height="1" fill="#020202" />
<rect x="113" y="8" width="1" height="1" fill="#020202" />
<rect x="4" y="9" width="1" height="1" fill="#020202" />
<rect x="5" y="9" width="1" height="1" fill="#020202" />
<rect x="6" y="9" width="1" height="1" fill="#020202" />
<rect x="7" y="9" width="1" height="1" fill="#020202" />
<rect x="8" y="9" width="1" height="1" fill="#020202" />
<rect x="9" y="9" width="1" height="1" fill="#020202" />
<rect x="10" y="9" width="1" height="1" fill="#020202" />
<rect x="11" y="9" width="1" height="1" fill="#020202" />
<rect x="18" y="9" width="1" height="1" fill="#020202" />
<rect x="19" y="9" width="1" height="1" fill="#020202" />
<rect x="24" y="9" width="1" height="1" fill="#020202" />
<rect x="25" y="9" width="1" height="1" fill="#020202" />
<rect x="28" y="9" width="1" height="1" fill="#020202" />
<rect x="29" y="9" width="1" height="1" fill="#020202" />
<rect x="30" y="9" width="1" height="1" fill="#020202" />
<rect x="31" y="9" width="1" height="1" fill="#020202" />
<rect x="32" y="9" width="1" height="1" fill="#020202" />
<rect x="33" y="9" width="1" height="1" fill="#020202" />
<rect x="34" y="9" width="1" height="1" fill="#020202" />
<rect x="35" y="9" width="1" height="1" fill="#020202" />
<rect x="44" y="9" width="1" height="1" fill="#020202" />
<rect x="45" y="9" width="1" height="1" fill="#020202" />
<rect x="54" y="9" width="1" height="1" fill="#020202" />
<rect x="55" y="9" width="1" height="1" fill="#020202" />
<rect x="66" y="9" width="1" height="1" fill="#020202" />
<rect x="67" y="9" width="1" height="1" fill="#020202" />
<rect x="72" y="9" width="1" height="1" fill="#020202" />
<rect x="73" y="9" width="1" height="1" fill="#020202" />
<rect x="74" y="9" width="1" height="1" fill="#020202" />
<rect x="75" y="9" width="1" height="1" fill="#020202" />
<rect x="76" y="9" width="1" height="1" fill="#020202" />
<rect x="77" y="9" width="1" height="1" fill="#020202" />
<rect x="78" y="9" width="1" height="1" fill="#020202" />
<rect x="79" y="9" width="1" height="1" fill="#020202" />
<rect x="82" y="9" width="1" height="1" fill="#020202" />
<rect x="83" y="9" width="1" height="1" fill="#020202" />
<rect x="84" y="9" width="1" height="1" fill="#020202" />
<rect x="85" y="9" width="1" height="1" fill="#020202" />
<rect x="86" y="9" width="1" height="1" fill="#020202" />
<rect x="87" y="9" width="1" height="1" fill="#020202" />
<rect x="88" y="9" width="1" height="1" fill="#020202" />
<rect x="89" y="9" width="1" height="1" fill="#020202" />
<rect x="94" y="9" width="1" height="1" fill="#020202" />
<rect x="95" y="9" width="1" height="1" fill="#020202" />
<rect x="96" y="9" width="1" height="1" fill="#020202" />
<rect x="97" y="9" width="1" height="1" fill="#020202" />
<rect x="98" y="9" width="1" height="1" fill="#020202" />
<rect x="99" y="9" width="1" height="1" fill="#020202" />
<rect x="100" y="9" width="1" height="1" fill="#020202" />
<rect x="101" y="9" width="1" height="1" fill="#020202" />
<rect x="106" y="9" width="1" height="1" fill="#020202" />
<rect x="107" y="9" width="1" height="1" fill="#020202" />
<rect x="112" y="9" width="1" height="1" fill="#020202" />
<rect x="113" y="9" width="1" height="1" fill="#020202" />
<rect x="4" y="10" width="1" height="1" fill="#020202" />
<rect x="5" y="10" width="1" height="1" fill="#020202" />
<rect x="6" y="10" width="1" height="1" fill="#020202" />
<rect x="7" y="10" width="1" height="1" fill="#020202" />
<rect x="8" y="10" width="1" height="1" fill="#020202" />
<rect x="9" y="10" width="1" height="1" fill="#020202" />
<rect x="10" y="10" width="1" height="1" fill="#020202" />
<rect x="11" y="10" width="1" height="1" fill="#020202" />
<rect x="18" y="10" width="1" height="1" fill="#020202" />
<rect x="19" y="10" width="1" height="1" fill="#020202" />
<rect x="24" y="10" width="1" height="1" fill="#020202" />
<rect x="25" y="10" width="1" height="1" fill="#020202" />
<rect x="28" y="10" width="1" height="1" fill="#020202" />
<rect x="29" y="10" width="1" height="1" fill="#020202" />
<rect x="34" y="10" width="1" height="1" fill="#020202" />
<rect x="35" y="10" width="1" height="1" fill="#020202" />
<rect x="42" y="10" width="1" height="1" fill="#020202" />
<rect x="43" y="10" width="1" height="1" fill="#020202" />
<rect x="52" y="10" width="1" height="1" fill="#020202" />
<rect x="53" y="10" width="1" height="1" fill="#020202" />
<rect x="66" y="10" width="1" height="1" fill="#020202" />
<rect x="67" y="10" width="1" height="1" fill="#020202" />
<rect x="72" y="10" width="1" height="1" fill="#020202" />
<rect x="73" y="10" width="1" height="1" fill="#020202" />
<rect x="82" y="10" width="1" height="1" fill="#020202" />
<rect x="83" y="10" width="1" height="1" fill="#020202" />
<rect x="94" y="10" width="1" height="1" fill="#020202" />
<rect x="95" y="10" width="1" height="1" fill="#020202" />
<rect x="106" y="10" width="1" height="1" fill="#020202" />
<rect x="107" y="10" width="1" height="1" fill="#020202" />
<rect x="112" y="10" width="1" height="1" fill="#020202" />
<rect x="113" y="10" width="1" height="1" fill="#020202" />
<rect x="4" y="11" width="1" height="1" fill="#020202" />
<rect x="5" y="11" width="1" height="1" fill="#020202" />
<rect x="6" y="11" width="1" height="1" fill="#020202" />
<rect x="7" y="11" width="1" height="1" fill="#020202" />
<rect x="8" y="11" width="1" height="1" fill="#020202" />
<rect x="9" y="11" width="1" height="1" fill="#020202" />
<rect x="10" y="11" width="1" height="1" fill="#020202" />
<rect x="11" y="11" width="1" height="1" fill="#020202" />
<rect x="18" y="11" width="1" height="1" fill="#020202" />
<rect x="19" y="11" width="1" height="1" fill="#020202" />
<rect x="24" y="11" width="1" height="1" fill="#020202" />
<rect x="25" y="11" width="1" height="1" fill="#020202" />
<rect x="28" y="11" width="1" height="1" fill="#020202" />
<rect x="29" y="11" width="1" height="1" fill="#020202" />
<rect x="34" y="11" width="1" height="1" fill="#020202" />
<rect x="35" y="11" width="1" height="1" fill="#020202" />
<rect x="42" y="11" width="1" height="1" fill="#020202" />
<rect x="43" y="11" width="1" height="1" fill="#020202" />
<rect x="52" y="11" width="1" height="1" fill="#020202" />
<rect x="53" y="11" width="1" height="1" fill="#020202" />
<rect x="66" y="11" width="1" height="1" fill="#020202" />
<rect x="67" y="11" width="1" height="1" fill="#020202" />
<rect x="72" y="11" width="1" height="1" fill="#020202" />
<rect x="73" y="11" width="1" height="1" fill="#020202" />
<rect x="82" y="11" width="1" height="1" fill="#020202" />
<rect x="83" y="11" width="1" height="1" fill="#020202" />
<rect x="94" y="11" width="1" height="1" fill="#020202" />
<rect x="95" y="11" width="1" height="1" fill="#020202" />
<rect x="106" y="11" width="1" height="1" fill="#020202" />
<rect x="107" y="11" width="1" height="1" fill="#020202" />
<rect x="112" y="11" width="1" height="1" fill="#020202" />
<rect x="113" y="11" width="1" height="1" fill="#020202" />
<rect x="0" y="12" width="1" height="1" fill="#020202" />
<rect x="1" y="12" width="1" height="1" fill="#020202" />
<rect x="2" y="12" width="1" height="1" fill="#020202" />
<rect x="3" y="12" width="1" height="1" fill="#020202" />
<rect x="8" y="12" width="1" height="1" fill="#020202" />
<rect x="9" y="12" width="1" height="1" fill="#020202" />
<rect x="10" y="12" width="1" height="1" fill="#020202" />
<rect x="11" y="12" width="1" height="1" fill="#020202" />
<rect x="20" y="12" width="1" height="1" fill="#020202" />
<rect x="21" y="12" width="1" height="1" fill="#020202" />
<rect x="22" y="12" width="1" height="1" fill="#020202" />
<rect x="23" y="12" width="1" height="1" fill="#020202" />
<rect x="24" y="12" width="1" height="1" fill="#020202" />
<rect x="25" y="12" width="1" height="1" fill="#020202" />
<rect x="28" y="12" width="1" height="1" fill="#020202" />
<rect x="29" y="12" width="1" height="1" fill="#020202" />
<rect x="30" y="12" width="1" height="1" fill="#020202" />
<rect x="31" y="12" width="1" height="1" fill="#020202" />
<rect x="32" y="12" width="1" height="1" fill="#020202" />
<rect x="33" y="12" width="1" height="1" fill="#020202" />
<rect x="34" y="12" width="1" height="1" fill="#020202" />
<rect x="35" y="12" width="1" height="1" fill="#020202" />
<rect x="40" y="12" width="1" height="1" fill="#020202" />
<rect x="41" y="12" width="1" height="1" fill="#020202" />
<rect x="42" y="12" width="1" height="1" fill="#020202" />
<rect x="43" y="12" width="1" height="1" fill="#020202" />
<rect x="44" y="12" width="1" height="1" fill="#020202" />
<rect x="45" y="12" width="1" height="1" fill="#020202" />
<rect x="46" y="12" width="1" height="1" fill="#020202" />
<rect x="47" y="12" width="1" height="1" fill="#020202" />
<rect x="50" y="12" width="1" height="1" fill="#020202" />
<rect x="51" y="12" width="1" height="1" fill="#020202" />
<rect x="52" y="12" width="1" height="1" fill="#020202" />
<rect x="53" y="12" width="1" height="1" fill="#020202" />
<rect x="54" y="12" width="1" height="1" fill="#020202" />
<rect x="55" y="12" width="1" height="1" fill="#020202" />
<rect x="56" y="12" width="1" height="1" fill="#020202" />
<rect x="57" y="12" width="1" height="1" fill="#020202" />
<rect x="62" y="12" width="1" height="1" fill="#020202" />
<rect x="63" y="12" width="1" height="1" fill="#020202" />
<rect x="64" y="12" width="1" height="1" fill="#020202" />
<rect x="65" y="12" width="1" height="1" fill="#020202" />
<rect x="66" y="12" width="1" height="1" fill="#020202" />
<rect x="67" y="12" width="1" height="1" fill="#020202" />
<rect x="68" y="12" width="1" height="1" fill="#020202" />
<rect x="69" y="12" width="1" height="1" fill="#020202" />
<rect x="74" y="12" width="1" height="1" fill="#020202" />
<rect x="75" y="12" width="1" height="1" fill="#020202" />
<rect x="76" y="12" width="1" height="1" fill="#020202" />
<rect x="77" y="12" width="1" height="1" fill="#020202" />
<rect x="78" y="12" width="1" height="1" fill="#020202" />
<rect x="79" y="12" width="1" height="1" fill="#020202" />
<rect x="82" y="12" width="1" height="1" fill="#020202" />
<rect x="83" y="12" width="1" height="1" fill="#020202" />
<rect x="84" y="12" width="1" height="1" fill="#020202" />
<rect x="85" y="12" width="1" height="1" fill="#020202" />
<rect x="86" y="12" width="1" height="1" fill="#020202" />
<rect x="87" y="12" width="1" height="1" fill="#020202" />
<rect x="88" y="12" width="1" height="1" fill="#020202" />
<rect x="89" y="12" width="1" height="1" fill="#020202" />
<rect x="90" y="12" width="1" height="1" fill="#020202" />
<rect x="91" y="12" width="1" height="1" fill="#020202" />
<rect x="96" y="12" width="1" height="1" fill="#020202" />
<rect x="97" y="12" width="1" height="1" fill="#020202" />
<rect x="98" y="12" width="1" height="1" fill="#020202" />
<rect x="99" y="12" width="1" height="1" fill="#020202" />
<rect x="100" y="12" width="1" height="1" fill="#020202" />
<rect x="101" y="12" width="1" height="1" fill="#020202" />
<rect x="106" y="12" width="1" height="1" fill="#020202" />
<rect x="107" y="12" width="1" height="1" fill="#020202" />
<rect x="112" y="12" width="1" height="1" fill="#020202" />
<rect x="113" y="12" width="1" height="1" fill="#020202" />
<rect x="0" y="13" width="1" height="1" fill="#020202" />
<rect x="1" y="13" width="1" height="1" fill="#020202" />
<rect x="2" y="13" width="1" height="1" fill="#020202" />
<rect x="3" y="13" width="1" height="1" fill="#020202" />
<rect x="8" y="13" width="1" height="1" fill="#020202" />
<rect x="9" y="13" width="1" height="1" fill="#020202" />
<rect x="10" y="13" width="1" height="1" fill="#020202" />
<rect x="11" y="13" width="1" height="1" fill="#020202" />
<rect x="20" y="13" width="1" height="1" fill="#020202" />
<rect x="21" y="13" width="1" height="1" fill="#020202" />
<rect x="22" y="13" width="1" height="1" fill="#020202" />
<rect x="23" y="13" width="1" height="1" fill="#020202" />
<rect x="24" y="13" width="1" height="1" fill="#020202" />
<rect x="25" y="13" width="1" height="1" fill="#020202" />
<rect x="28" y="13" width="1" height="1" fill="#020202" />
<rect x="29" y="13" width="1" height="1" fill="#020202" />
<rect x="30" y="13" width="1" height="1" fill="#020202" />
<rect x="31" y="13" width="1" height="1" fill="#020202" />
<rect x="32" y="13" width="1" height="1" fill="#020202" />
<rect x="33" y="13" width="1" height="1" fill="#020202" />
<rect x="34" y="13" width="1" height="1" fill="#020202" />
<rect x="35" y="13" width="1" height="1" fill="#020202" />
<rect x="40" y="13" width="1" height="1" fill="#020202" />
<rect x="41" y="13" width="1" height="1" fill="#020202" />
<rect x="42" y="13" width="1" height="1" fill="#020202" />
<rect x="43" y="13" width="1" height="1" fill="#020202" />
<rect x="44" y="13" width="1" height="1" fill="#020202" />
<rect x="45" y="13" width="1" height="1" fill="#020202" />
<rect x="46" y="13" width="1" height="1" fill="#020202" />
<rect x="47" y="13" width="1" height="1" fill="#020202" />
<rect x="50" y="13" width="1" height="1" fill="#020202" />
<rect x="51" y="13" width="1" height="1" fill="#020202" />
<rect x="52" y="13" width="1" height="1" fill="#020202" />
<rect x="53" y="13" width="1" height="1" fill="#020202" />
<rect x="54" y="13" width="1" height="1" fill="#020202" />
<rect x="55" y="13" width="1" height="1" fill="#020202" />
<rect x="56" y="13" width="1" height="1" fill="#020202" />
<rect x="57" y="13" width="1" height="1" fill="#020202" />
<rect x="62" y="13" width="1" height="1" fill="#020202" />
<rect x="63" y="13" width="1" height="1" fill="#020202" />
<rect x="64" y="13" width="1" height="1" fill="#020202" />
<rect x="65" y="13" width="1" height="1" fill="#020202" />
<rect x="66" y="13" width="1" height="1" fill="#020202" />
<rect x="67" y="13" width="1" height="1" fill="#020202" />
<rect x="68" y="13" width="1" height="1" fill="#020202" />
<rect x="69" y="13" width="1" height="1" fill="#020202" />
<rect x="74" y="13" width="1" height="1" fill="#020202" />
<rect x="75" y="13" width="1" height="1" fill="#020202" />
<rect x="76" y="13" width="1" height="1" fill="#020202" />
<rect x="77" y="13" width="1" height="1" fill="#020202" />
<rect x="78" y="13" width="1" height="1" fill="#020202" />
<rect x="79" y="13" width="1" height="1" fill="#020202" />
<rect x="82" y="13" width="1" height="1" fill="#020202" />
<rect x="83" y="13" width="1" height="1" fill="#020202" />
<rect x="84" y="13" width="1" height="1" fill="#020202" />
<rect x="85" y="13" width="1" height="1" fill="#020202" />
<rect x="86" y="13" width="1" height="1" fill="#020202" />
<rect x="87" y="13" width="1" height="1" fill="#020202" />
<rect x="88" y="13" width="1" height="1" fill="#020202" />
<rect x="89" y="13" width="1" height="1" fill="#020202" />
<rect x="90" y="13" width="1" height="1" fill="#020202" />
<rect x="91" y="13" width="1" height="1" fill="#020202" />
<rect x="96" y="13" width="1" height="1" fill="#020202" />
<rect x="97" y="13" width="1" height="1" fill="#020202" />
<rect x="98" y="13" width="1" height="1" fill="#020202" />
<rect x="99" y="13" width="1" height="1" fill="#020202" />
<rect x="100" y="13" width="1" height="1" fill="#020202" />
<rect x="101" y="13" width="1" height="1" fill="#020202" />
<rect x="106" y="13" width="1" height="1" fill="#020202" />
<rect x="107" y="13" width="1" height="1" fill="#020202" />
<rect x="112" y="13" width="1" height="1" fill="#020202" />
<rect x="113" y="13" width="1" height="1" fill="#020202" />
<rect x="82" y="14" width="1" height="1" fill="#020202" />
<rect x="83" y="14" width="1" height="1" fill="#020202" />
<rect x="90" y="14" width="1" height="1" fill="#020202" />
<rect x="91" y="14" width="1" height="1" fill="#020202" />
<rect x="82" y="15" width="1" height="1" fill="#020202" />
<rect x="83" y="15" width="1" height="1" fill="#020202" />
<rect x="90" y="15" width="1" height="1" fill="#020202" />
<rect x="91" y="15" width="1" height="1" fill="#020202" />
<rect x="82" y="16" width="1" height="1" fill="#020202" />
<rect x="83" y="16" width="1" height="1" fill="#020202" />
<rect x="84" y="16" width="1" height="1" fill="#020202" />
<rect x="85" y="16" width="1" height="1" fill="#020202" />
<rect x="86" y="16" width="1" height="1" fill="#020202" />
<rect x="87" y="16" width="1" height="1" fill="#020202" />
<rect x="88" y="16" width="1" height="1" fill="#020202" />
<rect x="89" y="16" width="1" height="1" fill="#020202" />
<rect x="82" y="17" width="1" height="1" fill="#020202" />
<rect x="83" y="17" width="1" height="1" fill="#020202" />
<rect x="84" y="17" width="1" height="1" fill="#020202" />
<rect x="85" y="17" width="1" height="1" fill="#020202" />
<rect x="86" y="17" width="1" height="1" fill="#020202" />
<rect x="87" y="17" width="1" height="1" fill="#020202" />
<rect x="88" y="17" width="1" height="1" fill="#020202" />
<rect x="89" y="17" width="1" height="1" fill="#020202" />
</svg>